<svg xmlns="http://www.w3.org/2000/svg" width="64" height="64" viewBox="0 0 64 64">
  <defs>
    <linearGradient id="githubGradient" x1="0%" y1="0%" x2="100%" y2="100%">
      <stop offset="0%" style="stop-color:#333333"/>
      <stop offset="100%" style="stop-color:#24292e"/>
    </linearGradient>
  </defs>
  <circle cx="32" cy="32" r="30" fill="url(#githubGradient)" stroke="#333333" stroke-width="2"/>
  <path d="M32 12 C20.4 12 11 21.4 11 33 C11 42.4 16.9 50.4 25.1 53.1 C26.1 53.3 26.5 52.7 26.5 52.1 C26.5 51.6 26.5 50.4 26.4 48.8 C21.8 49.9 20.7 46.8 20.7 46.8 C19.8 44.6 18.5 44 18.5 44 C16.6 42.9 18.7 42.9 18.7 42.9 C20.9 43.1 21.9 45.1 21.9 45.1 C23.8 48.4 26.9 47.4 27.5 47.1 C27.7 45.8 28.2 44.8 28.8 44.5 C24.8 44.1 20.6 42.6 20.6 35.4 C20.6 33.4 21.3 31.8 22 30.5 C21.8 30.1 21.1 28.3 22.2 25.9 C22.2 25.9 24 25.3 26.4 26.9 C28.1 26.4 30 26.2 31.9 26.2 C33.8 26.2 35.7 26.4 37.4 26.9 C39.8 25.2 41.6 25.9 41.6 25.9 C42.7 28.3 42 30.1 41.8 30.5 C42.5 31.8 43.2 33.4 43.2 35.4 C43.2 42.6 39 44.1 35 44.5 C35.7 45.1 36.4 46.3 36.4 48.2 C36.4 50.9 36.4 53.1 36.4 53.7 C36.4 54.3 36.8 54.9 37.8 54.7 C46 52 52 42.4 52 33 C52 21.4 42.6 12 32 12 Z" fill="white"/>
</svg>